<svg xmlns="http://www.w3.org/2000/svg" width="512" height="512" xmlns:v="https://vecta.io/nano"><path d="M357.476 31.554l7.16-.052c15.772-.074 27.39 3.933 39.114 14.81 10.757 11.367 12.705 23.81 12.638 38.932q.007 2.303.016 4.604l.003 12.587.018 13.6.013 26.617q-.006 10.821.002 21.641l.003 3.114.004 6.263-.003 58.705.027 53.672q.037 27.576.027 55.15l.017 30.947q.022 13.172-.002 26.344l.004 13.432q.02 6.158-.01 12.314-.006 2.218.01 4.437c.104 15.9-3.993 27.399-14.83 39.079-11.4 10.79-24.053 12.778-39.163 12.696-2.388-.008-4.773.02-7.16.052-15.772.074-27.39-3.933-39.114-14.81-10.757-11.367-12.705-23.81-12.638-38.932q-.007-2.303-.016-4.604l-.003-12.587-.018-13.6-.013-26.617a16630 16630 0 0 0-.005-24.755l-.004-6.263.003-58.705-.027-53.672q-.037-27.576-.027-55.15l-.017-30.947q-.022-13.172.002-26.344l-.004-13.432q-.02-6.158.01-12.314.006-2.219-.01-4.437c-.104-15.9 3.993-27.399 14.83-39.079 11.4-10.79 24.053-12.778 39.163-12.696m-208 0l7.16-.052c15.772-.074 27.39 3.933 39.114 14.81 10.757 11.367 12.705 23.81 12.638 38.932q.006 2.303.016 4.604l.003 12.587.018 13.6.013 26.617q-.006 10.821.002 21.641l.003 3.114.004 6.263-.003 58.705.027 53.672q.037 27.576.027 55.15-.006 15.473.017 30.947.022 13.172-.002 26.344l.004 13.432q.02 6.158-.01 12.314-.006 2.218.01 4.437c.104 15.9-3.993 27.399-14.83 39.079-11.4 10.79-24.053 12.778-39.163 12.696-2.388-.008-4.773.02-7.16.052-15.772.074-27.39-3.933-39.114-14.81-10.757-11.367-12.705-23.81-12.638-38.932q-.007-2.303-.016-4.604l-.003-12.587-.018-13.6-.013-26.617q.006-10.821-.002-21.641l-.003-3.114-.004-6.263.003-58.705-.027-53.672q-.037-27.576-.027-55.15.007-15.474-.017-30.947-.022-13.172.002-26.344l-.004-13.432q-.02-6.158.01-12.314.006-2.219-.01-4.437c-.104-15.9 3.993-27.399 14.83-39.079 11.4-10.79 24.053-12.778 39.163-12.696"/></svg>